<?xml version="1.0" encoding="utf-8"?>
<!-- Generator: Adobe Illustrator 20.0.0, SVG Export Plug-In . SVG Version: 6.00 Build 0)  -->
<svg version="1.1" id="图层_1" xmlns="http://www.w3.org/2000/svg" xmlns:xlink="http://www.w3.org/1999/xlink" x="0px" y="0px"
	 viewBox="0 0 17 17" style="enable-background:new 0 0 17 17;" xml:space="preserve">
<rect x="6" y="6" width="5" height="1"/>
<rect x="6" y="8" width="5" height="1"/>
<rect x="6" y="6" width="1" height="5"/>
<rect x="6" y="10" width="5" height="1"/>
<rect x="12" y="6" width="1" height="5"/>
<rect x="14" y="6" width="1" height="5"/>
<rect x="16" y="6" width="1" height="5"/>
<rect y="6" width="1" height="5"/>
<rect x="2" y="6" width="1" height="5"/>
<rect x="4" y="6" width="1" height="5"/>
<rect x="6" y="12" width="5" height="1"/>
<rect x="6" y="14" width="5" height="1"/>
<rect x="6" y="16" width="5" height="1"/>
<rect x="6" width="5" height="1"/>
<rect x="6" y="2" width="5" height="1"/>
<rect x="6" y="4" width="5" height="1"/>
</svg>
